#N canvas 1 173 779 582 10;
#X obj 223 152 unpack;
#X floatatom 223 176 5 0 0 0 - - -;
#X floatatom 256 176 5 0 0 0 - - -;
#X floatatom 314 113 5 0 0 0 - - -;
#X text 220 194 pitch (MIDI);
#X floatatom 223 257 8 0 0 0 - - -;
#X text 322 128 amplitude (dB);
#X obj 161 96 fiddle~ 1024 1 1;
#X floatatom 81 113 5 0 0 0 - - -;
#X obj 81 139 + 0.5;
#X obj 81 167 int;
#X floatatom 81 198 5 0 0 0 - - -;
#X obj 81 228 s pitch;
#X obj 223 212 + 0.5;
#X obj 223 234 int;
#N canvas 660 405 290 225 once 0;
#X obj 51 63 inlet;
#X obj 51 137 outlet;
#X obj 51 120 tgl 15 0 empty empty empty 17 7 0 10 -262144 -1 -1 0
1;
#X obj 91 84 bng 15 250 50 0 empty empty empty 17 7 0 10 -262144 -1
-1;
#X obj 91 63 inlet;
#X obj 91 103 delay 15;
#X connect 0 0 2 0;
#X connect 2 0 1 0;
#X connect 3 0 5 0;
#X connect 4 0 3 0;
#X connect 5 0 2 0;
#X restore 153 212 pd once;
#X obj 192 153 bng 15 250 50 0 empty empty empty 17 7 0 10 -262144
-1 -1;
#X text 212 66 AUDIO IN;
#X obj 105 373 inlet;
#X obj 177 436 outlet;
#X obj 161 59 inlet~;
#X text 104 353 METRO;
#X text 157 228 attaque;
#X obj 105 397 symbol \$1;
#X obj 357 283 bng 15 250 50 0 empty empty empty 17 7 0 10 -262144
-1 -1;
#X obj 177 414 pack s f f f f;
#X floatatom 456 287 5 0 0 0 - - -;
#X obj 502 124 specCentroid~ 1024;
#X obj 511 201 gate;
#X msg 534 270 0;
#X obj 570 253 r grav_reset;
#X connect 0 0 1 0;
#X connect 0 1 2 0;
#X connect 1 0 13 0;
#X connect 3 0 25 3;
#X connect 3 0 28 0;
#X connect 5 0 25 2;
#X connect 7 0 8 0;
#X connect 7 1 16 0;
#X connect 7 2 0 0;
#X connect 7 3 3 0;
#X connect 8 0 9 0;
#X connect 9 0 10 0;
#X connect 10 0 11 0;
#X connect 11 0 12 0;
#X connect 13 0 14 0;
#X connect 14 0 5 0;
#X connect 15 0 25 1;
#X connect 16 0 15 0;
#X connect 16 0 15 1;
#X connect 18 0 23 0;
#X connect 20 0 7 0;
#X connect 20 0 27 0;
#X connect 23 0 24 0;
#X connect 23 0 25 0;
#X connect 24 0 27 0;
#X connect 25 0 19 0;
#X connect 26 0 25 4;
#X connect 27 0 28 1;
#X connect 28 0 26 0;
#X connect 29 0 26 0;
#X connect 30 0 29 0;
